<?xml version="1.0" encoding="iso-8859-1"?>
<!-- Generator: Adobe Illustrator 19.1.0, SVG Export Plug-In . SVG Version: 6.00 Build 0)  -->
<svg version="1.1" id="Capa_1" xmlns="http://www.w3.org/2000/svg" xmlns:xlink="http://www.w3.org/1999/xlink" x="0px" y="0px"
	 viewBox="0 0 481.002 481.002" style="enable-background:new 0 0 481.002 481.002;" xml:space="preserve">
<g>
	<g>
		<path fill="#798FDA" d="M470.2,210.651l-30.6-4.6c-4.5-0.7-8.2-4.1-9.2-8.5c-4.9-22-13.6-42.6-25.2-61.1c-2.4-3.8-2.2-8.8,0.5-12.4l18.4-24.9
			c3.8-5.1,3.2-12.2-1.3-16.7l-4-4l-16.1-16.1l-4-4c-4.5-4.5-11.6-5-16.7-1.3l-24.8,18.3c-3.7,2.7-8.6,2.9-12.4,0.5
			c-18.5-11.8-39.1-20.5-61.2-25.4c-4.5-1-7.8-4.7-8.5-9.2l-4.6-30.3c-0.9-6.3-6.4-10.9-12.7-10.9h-5.7h-22.8h-5.7
			c-6.4,0-11.8,4.6-12.7,10.9l-4.6,30.3c-0.7,4.5-4.1,8.2-8.5,9.2c-22.1,5-42.7,13.7-61.2,25.4c-3.8,2.4-8.8,2.2-12.4-0.5
			l-24.8-18.3c-5.1-3.8-12.2-3.2-16.7,1.3l-4,4l-16.4,16l-4,4c-4.5,4.5-5,11.6-1.3,16.7l18.4,24.9c2.7,3.6,2.9,8.6,0.5,12.4
			c-11.7,18.5-20.3,39.1-25.2,61.1c-1,4.5-4.7,7.9-9.2,8.5l-30.6,4.6c-6.3,0.9-10.9,6.4-10.9,12.7v5.7v22.8v5.7
			c0,6.4,4.6,11.8,10.9,12.7l30.8,4.7c4.5,0.7,8.2,4,9.2,8.5c5,21.9,13.7,42.4,25.4,60.8c2.4,3.8,2.2,8.6-0.5,12.2l-18.7,25.4
			c-3.8,5.1-3.2,12.2,1.3,16.7l4,4l16.1,16.1l4,4c4.5,4.5,11.6,5,16.7,1.3l25.5-18.8c3.6-2.6,8.4-2.8,12.2-0.5
			c18.4,11.6,38.8,20.2,60.7,25.2c4.5,1,7.8,4.7,8.5,9.2l4.7,31.1c0.9,6.3,6.4,10.9,12.7,10.9h5.7H252h5.7c6.4,0,11.8-4.6,12.7-10.9
			l4.7-31.1c0.7-4.5,4.1-8.2,8.5-9.2c21.9-4.9,42.3-13.5,60.7-25.2c3.8-2.4,8.6-2.2,12.2,0.5l25.5,18.8c5.1,3.8,12.2,3.2,16.7-1.3
			l4-4l16.1-16.1l4-4c4.5-4.5,5-11.6,1.3-16.7l-18.9-25.3c-2.6-3.6-2.8-8.4-0.5-12.2c11.7-18.4,20.4-38.9,25.4-60.8
			c1-4.5,4.7-7.8,9.2-8.5l30.8-4.7c6.3-0.9,10.9-6.4,10.9-12.7v-5.7v-22.8v-5.7C481.1,217.051,476.4,211.651,470.2,210.651z
			 M240.6,394.151c-85,0.1-153.9-68.8-153.8-153.8c0.1-83.6,70-153.6,153.6-153.6c85-0.1,153.9,68.8,153.8,153.8
			C394.2,324.151,324.2,394.151,240.6,394.151z"/>
		<path fill="#56D785" d="M305.8,222.051c0.3-2.2,0.4-4.4,0.4-6.7v-35.5c0-30.4-24.8-55.2-55.2-55.2h-20.6c-30.4,0-55.2,24.8-55.2,55.2v35.5
			c0,2.2,0.2,4.4,0.4,6.6c-11.6,2.5-20.4,12.8-20.4,25.1v67.8c0,14.1,11.6,25.7,25.7,25.7h119.2c14.1,0,25.7-11.6,25.7-25.7v-67.8
			C325.9,234.951,317.3,224.651,305.8,222.051z M249.1,283.551c-1.1,0.8-1.5,1.7-1.5,3c0,6.1,0,12.1,0,18.2l0,0c0,3.9-3.1,7-7,7
			s-7-3.1-7-7l0,0c0-6.1,0-12.2,0-18.3c0-1.2-0.3-2.1-1.4-2.9c-5.5-4.1-7.3-11-4.6-17.1c2.7-5.9,9.2-9.4,15.4-8.2
			c6.8,1.4,11.6,6.9,11.7,13.8C254.8,276.851,252.9,280.751,249.1,283.551z M278.2,215.351c0,2.1-0.3,4.1-0.7,6.1H204
			c-0.4-2-0.7-4-0.7-6.1v-35.5c0-15,12.2-27.1,27.1-27.1H251c15,0,27.1,12.2,27.1,27.1v35.5H278.2z"/>
	</g>
</g>
<g>
</g>
<g>
</g>
<g>
</g>
<g>
</g>
<g>
</g>
<g>
</g>
<g>
</g>
<g>
</g>
<g>
</g>
<g>
</g>
<g>
</g>
<g>
</g>
<g>
</g>
<g>
</g>
<g>
</g>
</svg>
